<?xml version="1.0" encoding="UTF-8"?>
<svg id="Layer_1" xmlns="http://www.w3.org/2000/svg" version="1.1" viewBox="0 0 7050.8 3346.4">
  <!-- Generator: Adobe Illustrator 29.4.0, SVG Export Plug-In . SVG Version: 2.1.0 Build 152)  -->
  <defs>
    <style>
      .st0 {
        fill: #f2f2f2;
      }
    </style>
  </defs>
  <path class="st0" d="M4079.8,272.2v546.8h686v196h-686v1614.4c0,165.1,26.6,291.4,80,379.1,53.3,87.7,145.2,131.5,276,131.5,61.9,0,115.2-3.4,159.9-10.3,44.7-6.8,82.5-15.5,113.5-25.8l25.8,185.7c-82.5,37.8-192.6,56.8-330.1,56.8-113.5,0-207.2-19-281.1-56.8-74-37.8-132.4-90.2-175.4-157.3s-73.1-147.8-90.3-242.4c-17.3-94.5-25.8-196.8-25.8-306.9V1015h-407.5v-196h407.5v-454l247.5-92.8h0ZM5163,818.9l567.4,1537.1c48.1,120.4,91.1,233.9,128.9,340.4,37.8,106.6,73.9,211.5,108.3,314.6h10.3c34.3-99.7,71.3-203.8,110.9-312.1,39.5-108.3,83.4-222.6,131.5-343l572.5-1537.1h257.9l-985.2,2475.8h-211.5l-948.9-2475.7h257.9Z"/>
  <path class="st0" d="M1505.2,291.2C1725.1,1.4,2030.8,0,2030.8,0c0,0,45.5,272.5-173,534.9-233.2,280.3-498.3,234.4-498.3,234.4,0,0-49.8-220.4,145.7-478.1h0ZM1387.4,960.2c113.1,0,323-155.5,596.3-155.5,470.4,0,655.4,334.7,655.4,334.7,0,0-361.9,185-361.9,634,0,506.5,450.8,681,450.8,681,0,0-315.1,887-740.8,887-195.5,0-347.5-131.8-553.5-131.8s-418.3,136.7-553.9,136.7C491.1,3346.4,0,2504.9,0,1828.6s415.7-1014.6,805.5-1014.6c253.5,0,450.2,146.2,581.9,146.2Z"/>
</svg>