<?xml version="1.0" encoding="UTF-8"?>
<svg id="Layer_1" xmlns="http://www.w3.org/2000/svg" version="1.1" viewBox="0 0 500 500">
  <!-- Generator: Adobe Illustrator 29.4.0, SVG Export Plug-In . SVG Version: 2.1.0 Build 152)  -->
  <defs>
    <style>
      .st0 {
        fill: #f2f2f2;
      }
    </style>
  </defs>
  <path class="st0" d="M0,150v190h40v-90c0-5,3.98-10,10-10h30c5,0,10,3.98,10,10v90h40v-100c0-21.99-18.01-40-40-40h-50v-50H0ZM300,150v190h40v-190h-40ZM150,200v100c0,21.99,18.01,40,40,40h50c21.99,0,39.92-18.01,40.94-40v-100h-40v89.06c0,6.02-4.92,10.94-10.94,10.94h-29.06c-6.02,0-10.94-4.92-10.94-10.94v-89.06h-40ZM360,200v100c0,21.99,18.01,40,40,40h50c21.99,0,40-18.01,40-40v-100h-40v90c0,5-3.98,10-10,10h-30c-5,0-10-3.98-10-10v-90h-40Z"/>
</svg>